<?xml version="1.0" encoding="utf-8"?>
<!-- Generator: Adobe Illustrator 25.3.1, SVG Export Plug-In . SVG Version: 6.00 Build 0)  -->
<svg version="1.1" id="Layer_1" xmlns="http://www.w3.org/2000/svg" xmlns:xlink="http://www.w3.org/1999/xlink" x="0px" y="0px"
	 viewBox="0 0 99.59 68.16" style="enable-background:new 0 0 99.59 68.16;" xml:space="preserve">
<style type="text/css">
	.st0{fill:#657C68;}
	.st1{fill:none;stroke:#006838;stroke-miterlimit:10;}
	.st2{display:none;fill:#3A5E60;}
	.st3{fill:none;stroke:#83B295;stroke-miterlimit:10;}
	.st4{fill:none;stroke:#C8D1F4;stroke-width:1.5;stroke-linecap:round;stroke-miterlimit:10;}
	.st5{fill:#FFFFFF;}
	.st6{fill:#D7B8C5;}
</style>
<path class="st4" d="M87.29,23c-1.13-2.41,0.29-5.57,2.74-6.61c2.45-1.04,5.49-0.07,7.17,1.99c3.94,4.84,0.32,12.69-6.04,12.5
	c-1.91-0.06-3.74-0.87-5.24-2.05C82.69,26.3,81,22.3,79.64,18.42c-1.56-4.45-3.15-8.62-6.14-12.33c-2.07-2.57-4.9-4.66-8.15-5.22
	c-4.25-0.73-7.22,2.52-6.29,6.96c2.58,12.31,15.56,16.89,23.35,25.21c9.53,10.19,9.05,31.05-7.26,33.98
	c-0.66,0.12-1.34,0.2-2.01,0.24c-7.8,0.51-14.24-4.54-18.25-10.82c-3.23-5.06-5.81-10.73-6.28-16.78
	c-0.52-6.7-0.01-16.78,8.82-17.46c6.7-0.52,10.37,6.09,10.82,11.88c0.79,10.23-3.57,19.14-13.95,22.66
	c-4.37,1.48-9.31,1.23-13.75,0.21c-4.98-1.14-9.57-3.83-12.32-8.24c-0.03-0.05-0.06-0.1-0.09-0.15c-1.91-3.14-2.95-7.62-0.85-10.8
	c3.56-5.39,11.53-2.05,14.44,2.34c3.93,5.93,3.32,14.21-0.31,20.13c-8.36,13.61-31.39,6.4-31.39-9.34c0-6.85,3.62-11.76,7.86-16.7
	c3.88-4.53,7.84-9,11.87-13.4C33.2,17,37.17,13.6,39.87,9.19c2.81-4.57-0.36-9.23-5.63-8.32c-3.25,0.56-6.08,2.66-8.15,5.22
	c-2.99,3.71-4.58,7.88-6.14,12.33c-1.36,3.88-3.05,7.88-6.29,10.42c-1.5,1.17-3.33,1.99-5.24,2.05c-6.36,0.19-9.98-7.66-6.04-12.5
	c1.68-2.06,4.72-3.03,7.17-1.99c2.45,1.04,3.87,4.2,2.74,6.61"/>
</svg>
